<?xml version="1.0" encoding="UTF-8"?>
<svg width="477.53" height="483.42" version="1.1" viewBox="0 0 477.53 483.42" xmlns="http://www.w3.org/2000/svg" xmlns:cc="http://creativecommons.org/ns#" xmlns:dc="http://purl.org/dc/elements/1.1/" xmlns:rdf="http://www.w3.org/1999/02/22-rdf-syntax-ns#">
 <metadata>
  <rdf:RDF>
   <cc:Work rdf:about="">
    <dc:format>image/svg+xml</dc:format>
    <dc:type rdf:resource="http://purl.org/dc/dcmitype/StillImage"/>
    <dc:title/>
   </cc:Work>
  </rdf:RDF>
 </metadata>
 <g transform="translate(-39.757 -48.513)">
  <path d="m270.57 531.27c-7.3029-2.3946-5.541-0.68224-121.54-118.12-20.375-20.628-51.538-52.156-69.251-70.063-17.713-17.907-33.35-34.107-34.748-36-3.6259-4.9106-5.8123-13.195-5.1573-19.542 1.1091-10.746 2.5013-12.523 37.495-47.859 17.996-18.172 51.36-51.941 74.142-75.041 85.973-87.174 110.67-111.71 114.56-113.82 5.705-3.0813 19.249-3.095 25-0.02522 3.7632 2.0088 24.904 23.023 118.55 117.84 20.101 20.352 50.817 51.434 68.258 69.07 17.44 17.636 32.851 33.611 34.246 35.5 6.1651 8.3493 6.8846 20.949 1.7498 30.642-2.11 3.9832-19.305 21.992-69.739 73.039-126.91 128.45-148.94 150.4-153.05 152.51-4.3658 2.2384-16.126 3.3084-20.521 1.8673z"/>
  <path d="m287.07 522.27c2.8185-1.2899 25.113-23.215 75.476-74.228 39.312-39.819 87.237-88.253 106.5-107.63 39.149-39.385 41.06-41.824 40.23-51.353-0.26767-3.0733-1.2636-7.1233-2.2131-9s-17.761-19.607-37.36-39.401c-19.598-19.794-52.958-53.542-74.133-74.997-96.779-98.055-104.54-105.75-108.5-107.6-5.1002-2.3843-11.892-2.3865-17-0.0055-3.9548 1.8434-8.8989 6.7455-104.48 103.59-20.085 20.351-53.896 54.551-75.135 76-21.239 21.449-39.375 40.485-40.303 42.302-3.7569 7.3558-3.0617 16.444 1.7574 22.976 1.2591 1.7066 35.089 36.317 75.177 76.911 132.68 134.35 138.77 140.43 142.99 142.39 5.0756 2.3728 11.867 2.3885 17 0.0393z" fill="#fcb714"/>
  <path d="m257.36 435.46c0.52472-7.3715-1.3772-28.703-3.8614-43.309-2.3723-13.948-7.6545-33.672-12.533-46.8-14.554-33.962-16.79-35.875-31.214-56.301-5.3191-6.6775-8.8228-10.489-13.593-15.152l-4.9149-4.474-4.865 6.0618c-3.4101 4.5606-5.9636 9.1662-9.8532 13.413-1.6703 1.2479-0.90128 3.1537-22.853-56.635l-8.952-24.382 8.6766 0.66798c22.128 1.7036 78.715 6.8036 79.036 7.1233 0.19782 0.1968-3.2912 5.0724-7.7534 10.835l-8.1131 10.477 5.6018 4.7858c6.4592 5.5183 20.755 21.803 27.769 31.632 16.113 24.823 17.564 28.994 25.038 44.118 1.4289 3.2309 2.598 6.2684 2.598 6.75 0 2.5961 1.8894 0.0902 4.4291-5.8744 7.0652-16.593 21.034-39.967 32.422-54.25 2.8502-3.575 9.8736-11.239 15.608-17.031l10.425-10.531-8.0484-10.279c-4.4266-5.6536-7.8819-10.446-7.6784-10.649 0.55663-0.55664 83.93-7.649 85.889-7.3064 1.4712 0.25732 1.0747 1.9537-2.9913 12.797-2.578 6.875-9.3506 25.264-15.05 40.864-10.247 28.047-10.382 28.338-12.098 26-0.9545-1.3002-4.6224-6.0502-8.151-10.556l-6.4155-8.1916-8.0385 8.1916c-4.4212 4.5054-10.333 11.237-13.138 14.96-4.6123 6.5891-14.627 22.246-18.686 30.778-15.684 31.229-25.716 72.603-25.628 105.7l0.0323 12.25h-43.499l0.40473-5.6858z"/>
 </g>
</svg>
