<?xml version="1.0" encoding="UTF-8"?>
<!-- Created with Inkscape (http://www.inkscape.org/) -->
<svg width="487.56" height="484.09" version="1.1" viewBox="0 0 487.56 484.09" xmlns="http://www.w3.org/2000/svg" xmlns:cc="http://creativecommons.org/ns#" xmlns:dc="http://purl.org/dc/elements/1.1/" xmlns:rdf="http://www.w3.org/1999/02/22-rdf-syntax-ns#">
 <metadata>
  <rdf:RDF>
   <cc:Work rdf:about="">
    <dc:format>image/svg+xml</dc:format>
    <dc:type rdf:resource="http://purl.org/dc/dcmitype/StillImage"/>
    <dc:title/>
   </cc:Work>
  </rdf:RDF>
 </metadata>
 <path d="m482.68 248.19c1.2439-1.5861 1.2085-1.6214-0.37756-0.37756-1.6658 1.3064-2.1955 2.1276-1.3724 2.1276 0.20765 0 0.99515-0.7875 1.75-1.75z"/>
 <path d="m486.68 244.19c1.2439-1.5861 1.2085-1.6214-0.37756-0.37756-1.6658 1.3064-2.1955 2.1276-1.3724 2.1276 0.20765 0 0.99515-0.7875 1.75-1.75z"/>
 <path d="m247.42 474.17c2.8185-1.2899 25.113-23.215 75.476-74.228 39.312-39.819 87.237-88.253 106.5-107.63 39.149-39.385 41.06-41.824 40.23-51.353-0.26767-3.0733-1.2636-7.1233-2.2131-9s-17.761-19.607-37.36-39.401c-19.598-19.794-52.958-53.542-74.133-74.997-96.779-98.055-104.54-105.75-108.5-107.6-5.1002-2.3843-11.892-2.3865-17-0.0055-3.9548 1.8434-8.8989 6.7455-104.48 103.59-20.085 20.351-53.896 54.551-75.135 76s-39.375 40.485-40.303 42.302c-3.7569 7.3558-3.0617 16.444 1.7574 22.976 1.2591 1.7066 35.089 36.317 75.177 76.911 132.68 134.35 138.77 140.43 142.99 142.39 5.0756 2.3728 11.867 2.3885 17 0.0393z" fill="#fcb714" stroke="#000" stroke-width="16.12"/>
 <path d="m218.91 277.42c-4.1601-13.398-12.271-26.117-23.28-36.504-8.0787-7.6222-23.334-17.583-24.51-16.003-0.18522 0.24887-1.8286 7.3746-3.6519 15.835l-3.3151 15.382-3.6948-3.3694c-49.575-45.209-71.365-65.83-70.446-66.668 1.7057-1.5561 94.646-30.301 95.432-29.516 0.37321 0.3732-0.95669 7.9226-2.9553 16.776-1.9986 8.8538-3.4696 16.155-3.2688 16.225 7.1802 2.5046 27.086 14.161 34.19 20.02 8.7154 7.1888 21.673 21.321 25.214 27.501 1.3369 2.3328 1.6462 2.2544 3.9646-1.0045 12.65-17.783 28.404-31.601 45.932-40.289 6.769-3.3551 12.472-6.1575 12.672-6.2276 0.20079-0.07-1.2702-7.3714-3.2688-16.225-1.9986-8.8538-3.3221-16.41-2.941-16.791 0.80273-0.80274 93.703 27.961 95.438 29.549 0.91962 0.84189-54.081 52.895-70.393 66.621l-3.8106 3.2064-3.2941-15.287c-1.8118-8.4076-3.4642-15.509-3.6722-15.78-0.20794-0.2716-4.1616 1.5228-8.7859 3.9875-16.453 8.7695-33.048 29.436-38.999 48.57-3.7491 23.344-2.387 37.772-3.8134 82.374l-0.38196 34.59h-34.183c-1.6493-76.21-0.50329-89.422-4.1804-116.97z" stroke-width="1.4264"/>
</svg>
